<?xml version="1.0" encoding="iso-8859-1"?>
<!-- Generator: Adobe Illustrator 16.0.0, SVG Export Plug-In . SVG Version: 6.00 Build 0)  -->
<!DOCTYPE svg PUBLIC "-//W3C//DTD SVG 1.1//EN" "http://www.w3.org/Graphics/SVG/1.1/DTD/svg11.dtd">
<svg version="1.1" id="Capa_1" xmlns="http://www.w3.org/2000/svg" xmlns:xlink="http://www.w3.org/1999/xlink" x="0px" y="0px"
	 width="61.746px" height="61.746px" viewBox="0 0 61.746 61.746" style="enable-background:new 0 0 61.746 61.746;"
	 xml:space="preserve">
<g>
	<path d="M43.122,10.658c0.048-0.271,0.084-0.549,0.084-0.834v-4.99C43.206,2.168,41.037,0,38.371,0H23.375
		c-2.666,0-4.835,2.168-4.835,4.834v4.99c0,0.285,0.036,0.563,0.084,0.834H3.623V56.91c0,2.666,2.169,4.836,4.835,4.836h44.83
		c2.666,0,4.835-2.17,4.835-4.836V10.658H43.122z M22.54,9.824v-4.99C22.54,4.375,22.915,4,23.375,4h14.996
		c0.46,0,0.835,0.375,0.835,0.834v4.99c0,0.459-0.375,0.834-0.835,0.834H23.375C22.915,10.658,22.54,10.283,22.54,9.824z
		 M54.123,56.91c0,0.461-0.375,0.836-0.835,0.836H8.458c-0.46,0-0.835-0.375-0.835-0.836V14.658h15.752h14.996h15.752V56.91z" style="fill:#3D5A23"/>
</g>
<g>
</g>
<g>
</g>
<g>
</g>
<g>
</g>
<g>
</g>
<g>
</g>
<g>
</g>
<g>
</g>
<g>
</g>
<g>
</g>
<g>
</g>
<g>
</g>
<g>
</g>
<g>
</g>
<g>
</g>
</svg>
